DBRep_DrawableShape

CASCADE Topology V1, (c) Matra-Datavision
Locations 15
1
              1               0               0               0 
              0               1               0               0 
              0               0               1               0 
1
              1               0               0               0 
              0               1               0               0 
              0               0               1               0 
2  2 -1 0
1
              1               0               0               0 
              0               1               0               0 
              0               0               1               0 
1
              1               0               0               0 
              0               1               0               0 
              0               0               1               0 
2  4 1 5 -1 0
2  5 1 4 -1 0
2  4 -1 0
2  2 -1 5 1 4 -1 0
1
              1               0               0               0 
              0               1               0               0 
              0               0               1            1000 
2  4 1 5 -1 10 1 0
2  10 -1 5 1 4 -1 0
2  2 -1 10 -1 5 1 4 -1 0
2  5 -1 0
2  5 -1 10 1 0
Curve2ds 4
1 0 0 0 -1 
1 6.2831853071795862 0 0 -1 
1 0 0 1 0 
1 0 -1000 1 0 
Curves 3
1 50 0 0 0 0 1 
2 0 0 0 0 0 1 1 0 0 0 1 0 50
2 0 0 0 0 0 1 1 0 0 0 1 0 50
Polygon3D 0
PolygonOnTriangulations 6
2 1 2 
p 0.800000011920929 1 0 1000 
2 3 4 
p 0.800000011920929 1 0 1000 
27 1 5 6 7 8 9 10 11 12 13 14 15 16 17 18 19 20 21 22 23 24 25 26 27 28 29 3 
p 0.800000011920929 1 0 0.241660973353061 0.483321946706122 0.724982920059183 0.966643893412244 1.2083048667653 1.44996584011837 1.69162681347143 1.93328778682449 2.17494876017755 2.41660973353061 2.65827070688367 2.89993168023673 3.14159265358979 3.38325362694285 3.62491460029591 3.86657557364897 4.10823654700204 4.3498975203551 4.59155849370816 4.83321946706122 5.07488044041428 5.31654141376734 5.5582023871204 5.79986336047346 6.04152433382652 6.28318530717959 
27 1 2 3 4 5 6 7 8 9 10 11 12 13 14 15 16 17 18 19 20 21 22 23 24 25 26 1 
p 0.800000011920929 1 0 0.241660973353061 0.483321946706122 0.724982920059183 0.966643893412244 1.2083048667653 1.44996584011837 1.69162681347143 1.93328778682449 2.17494876017755 2.41660973353061 2.65827070688367 2.89993168023673 3.14159265358979 3.38325362694285 3.62491460029591 3.86657557364897 4.10823654700204 4.3498975203551 4.59155849370816 4.83321946706122 5.07488044041428 5.31654141376734 5.5582023871204 5.79986336047346 6.04152433382652 6.28318530717959 
27 2 30 31 32 33 34 35 36 37 38 39 40 41 42 43 44 45 46 47 48 49 50 51 52 53 54 4 
p 0.800000011920929 1 0 0.241660973353061 0.483321946706122 0.724982920059183 0.966643893412244 1.2083048667653 1.44996584011837 1.69162681347143 1.93328778682449 2.17494876017755 2.41660973353061 2.65827070688367 2.89993168023673 3.14159265358979 3.38325362694285 3.62491460029591 3.86657557364897 4.10823654700204 4.3498975203551 4.59155849370816 4.83321946706122 5.07488044041428 5.31654141376734 5.5582023871204 5.79986336047346 6.04152433382652 6.28318530717959 
27 1 2 3 4 5 6 7 8 9 10 11 12 13 14 15 16 17 18 19 20 21 22 23 24 25 26 1 
p 0.800000011920929 1 0 0.241660973353061 0.483321946706122 0.724982920059183 0.966643893412244 1.2083048667653 1.44996584011837 1.69162681347143 1.93328778682449 2.17494876017755 2.41660973353061 2.65827070688367 2.89993168023673 3.14159265358979 3.38325362694285 3.62491460029591 3.86657557364897 4.10823654700204 4.3498975203551 4.59155849370816 4.83321946706122 5.07488044041428 5.31654141376734 5.5582023871204 5.79986336047346 6.04152433382652 6.28318530717959 
Surfaces 3
2 0 0 0 -0 -0 -1 1 0 0 0 1 0 50
1 -1.7503233696504616e-15 3.2098921103724628e-15 0 0 0 1 1 0 0 0 1 0 
1 -1.7503233696504616e-15 3.2098921103724628e-15 0 0 0 1 1 0 0 0 1 0 
Triangulations 3
54 52 1 0.36455629509731
50 0 0 50 0 1000 50 0 0 50 0 1000 48.5470908713026 11.9657832143779 0 44.2728012826605 23.2361586021884 0 37.4255374085551 33.1561329120398 0 28.4032373365578 41.1491932946828 0 17.7302443521268 46.7508121342707 0 6.02683401276616 49.6354437049027 0 -6.02683401276614 49.6354437049027 0 -17.7302443521268 46.7508121342707 0 -28.4032373365578 41.1491932946828 0 -37.425537408555 33.1561329120398 0 -44.2728012826605 23.2361586021885 0 -48.5470908713026 11.9657832143779 0 -50 5.0532154980743e-14 0 -48.5470908713026 -11.9657832143778 0 -44.2728012826605 -23.2361586021884 0 -37.4255374085551 -33.1561329120397 0 -28.4032373365579 -41.1491932946828 0 -17.7302443521269 -46.7508121342707 0 -6.02683401276627 -49.6354437049027 0 6.02683401276603 -49.6354437049027 0 17.7302443521267 -46.7508121342708 0 28.4032373365577 -41.1491932946829 0 37.425537408555 -33.1561329120399 0 44.2728012826604 -23.2361586021886 0 48.5470908713026 -11.9657832143781 0 48.5470908713026 11.9657832143779 1000 44.2728012826605 23.2361586021884 1000 37.4255374085551 33.1561329120398 1000 28.4032373365578 41.1491932946828 1000 17.7302443521268 46.7508121342707 1000 6.02683401276616 49.6354437049027 1000 -6.02683401276614 49.6354437049027 1000 -17.7302443521268 46.7508121342707 1000 -28.4032373365578 41.1491932946828 1000 -37.425537408555 33.1561329120398 1000 -44.2728012826605 23.2361586021885 1000 -48.5470908713026 11.9657832143779 1000 -50 5.0532154980743e-14 1000 -48.5470908713026 -11.9657832143778 1000 -44.2728012826605 -23.2361586021884 1000 -37.4255374085551 -33.1561329120397 1000 -28.4032373365579 -41.1491932946828 1000 -17.7302443521269 -46.7508121342707 1000 -6.02683401276627 -49.6354437049027 1000 6.02683401276603 -49.6354437049027 1000 17.7302443521267 -46.7508121342708 1000 28.4032373365577 -41.1491932946829 1000 37.425537408555 -33.1561329120399 1000 44.2728012826604 -23.2361586021886 1000 48.5470908713026 -11.9657832143781 1000 0 0 0 -1000 6.28318530717959 0 6.28318530717959 -1000 0.241660973353061 0 0.483321946706122 0 0.724982920059183 0 0.966643893412244 0 1.2083048667653 0 1.44996584011837 0 1.69162681347143 0 1.93328778682449 0 2.17494876017755 0 2.41660973353061 0 2.65827070688367 0 2.89993168023673 0 3.14159265358979 0 3.38325362694285 0 3.62491460029591 0 3.86657557364897 0 4.10823654700204 0 4.3498975203551 0 4.59155849370816 0 4.83321946706122 0 5.07488044041428 0 5.31654141376734 0 5.5582023871204 0 5.79986336047346 0 6.04152433382652 0 0.241660973353061 -1000 0.483321946706122 -1000 0.724982920059183 -1000 0.966643893412244 -1000 1.2083048667653 -1000 1.44996584011837 -1000 1.69162681347143 -1000 1.93328778682449 -1000 2.17494876017755 -1000 2.41660973353061 -1000 2.65827070688367 -1000 2.89993168023673 -1000 3.14159265358979 -1000 3.38325362694285 -1000 3.62491460029591 -1000 3.86657557364897 -1000 4.10823654700204 -1000 4.3498975203551 -1000 4.59155849370816 -1000 4.83321946706122 -1000 5.07488044041428 -1000 5.31654141376734 -1000 5.5582023871204 -1000 5.79986336047346 -1000 6.04152433382652 -1000 24 49 50 25 24 50 25 50 51 26 25 51 5 1 2 5 2 30 27 26 51 27 51 52 27 52 53 6 30 31 6 5 30 28 53 54 28 27 53 7 31 32 7 6 31 29 28 54 3 54 4 3 29 54 8 32 33 8 33 34 8 7 32 9 8 34 10 34 35 10 35 36 10 9 34 11 10 36 12 36 37 12 37 38 12 11 36 13 38 39 13 12 38 14 13 39 15 14 39 15 39 40 16 15 40 16 40 41 16 41 42 17 16 42 17 42 43 18 17 43 18 43 44 19 18 44 20 19 44 20 44 45 20 45 46 21 20 46 21 46 47 22 21 47 22 47 48 23 22 48 24 23 48 24 48 49 
26 24 1 5.32907051820075e-15
50 0 0 48.5470908713026 11.9657832143779 0 44.2728012826605 23.2361586021884 0 37.4255374085551 33.1561329120398 0 28.4032373365578 41.1491932946828 0 17.7302443521268 46.7508121342707 0 6.02683401276616 49.6354437049027 0 -6.02683401276614 49.6354437049027 0 -17.7302443521268 46.7508121342707 0 -28.4032373365578 41.1491932946828 0 -37.425537408555 33.1561329120398 0 -44.2728012826605 23.2361586021885 0 -48.5470908713026 11.9657832143779 0 -50 5.0532154980743e-14 0 -48.5470908713026 -11.9657832143778 0 -44.2728012826605 -23.2361586021884 0 -37.4255374085551 -33.1561329120397 0 -28.4032373365579 -41.1491932946828 0 -17.7302443521269 -46.7508121342707 0 -6.02683401276627 -49.6354437049027 0 6.02683401276603 -49.6354437049027 0 17.7302443521267 -46.7508121342708 0 28.4032373365577 -41.1491932946829 0 37.425537408555 -33.1561329120399 0 44.2728012826604 -23.2361586021886 0 48.5470908713026 -11.9657832143781 0 50 0 48.5470908713026 11.9657832143779 44.2728012826605 23.2361586021884 37.4255374085551 33.1561329120398 28.4032373365578 41.1491932946828 17.7302443521268 46.7508121342707 6.02683401276617 49.6354437049027 -6.02683401276614 49.6354437049027 -17.7302443521268 46.7508121342707 -28.4032373365578 41.1491932946828 -37.425537408555 33.1561329120398 -44.2728012826605 23.2361586021885 -48.5470908713026 11.9657832143779 -50 4.9737991503207e-14 -48.5470908713026 -11.9657832143778 -44.2728012826605 -23.2361586021884 -37.4255374085551 -33.1561329120397 -28.4032373365579 -41.1491932946828 -17.7302443521269 -46.7508121342707 -6.02683401276627 -49.6354437049027 6.02683401276603 -49.6354437049027 17.7302443521266 -46.7508121342708 28.4032373365577 -41.1491932946829 37.425537408555 -33.1561329120399 44.2728012826604 -23.2361586021886 48.5470908713026 -11.9657832143781 19 17 18 15 16 17 13 14 15 13 19 20 13 20 21 13 17 19 13 15 17 22 13 21 11 12 13 10 11 13 25 23 24 26 23 25 8 9 10 2 22 23 2 26 1 2 13 22 2 10 13 2 23 26 5 6 7 4 2 3 4 7 8 4 8 10 4 5 7 4 10 2 
26 24 1 5.32907051820075e-15
50 0 0 48.5470908713026 11.9657832143779 0 44.2728012826605 23.2361586021884 0 37.4255374085551 33.1561329120398 0 28.4032373365578 41.1491932946828 0 17.7302443521268 46.7508121342707 0 6.02683401276616 49.6354437049027 0 -6.02683401276614 49.6354437049027 0 -17.7302443521268 46.7508121342707 0 -28.4032373365578 41.1491932946828 0 -37.425537408555 33.1561329120398 0 -44.2728012826605 23.2361586021885 0 -48.5470908713026 11.9657832143779 0 -50 5.0532154980743e-14 0 -48.5470908713026 -11.9657832143778 0 -44.2728012826605 -23.2361586021884 0 -37.4255374085551 -33.1561329120397 0 -28.4032373365579 -41.1491932946828 0 -17.7302443521269 -46.7508121342707 0 -6.02683401276627 -49.6354437049027 0 6.02683401276603 -49.6354437049027 0 17.7302443521267 -46.7508121342708 0 28.4032373365577 -41.1491932946829 0 37.425537408555 -33.1561329120399 0 44.2728012826604 -23.2361586021886 0 48.5470908713026 -11.9657832143781 0 50 0 48.5470908713026 11.9657832143779 44.2728012826605 23.2361586021884 37.4255374085551 33.1561329120398 28.4032373365578 41.1491932946828 17.7302443521268 46.7508121342707 6.02683401276617 49.6354437049027 -6.02683401276614 49.6354437049027 -17.7302443521268 46.7508121342707 -28.4032373365578 41.1491932946828 -37.425537408555 33.1561329120398 -44.2728012826605 23.2361586021885 -48.5470908713026 11.9657832143779 -50 4.9737991503207e-14 -48.5470908713026 -11.9657832143778 -44.2728012826605 -23.2361586021884 -37.4255374085551 -33.1561329120397 -28.4032373365579 -41.1491932946828 -17.7302443521269 -46.7508121342707 -6.02683401276627 -49.6354437049027 6.02683401276603 -49.6354437049027 17.7302443521266 -46.7508121342708 28.4032373365577 -41.1491932946829 37.425537408555 -33.1561329120399 44.2728012826604 -23.2361586021886 48.5470908713026 -11.9657832143781 19 17 18 15 16 17 13 14 15 13 19 20 13 20 21 13 17 19 13 15 17 22 13 21 11 12 13 10 11 13 25 23 24 26 23 25 8 9 10 2 22 23 2 26 1 2 13 22 2 10 13 2 23 26 5 6 7 4 2 3 4 7 8 4 8 10 4 5 7 4 10 2 

TShapes 14
Ve
1e-07
50 0 0
0 0

0101101
*
Ve
1e-07
50 0 1000
0 0

0101101
*
Ed
 1e-07 1 1 0
1  1 0 0 1000
3  1 2CN 1 0 0 1000
7  1 2 1 0
0

0101000
+14 3 -13 3 *
Ed
 1e-07 1 1 0
1  2 0 0 6.28318530717959
2  3 1 7 0 6.28318530717959
6  3 1 7
6  4 2 8
0

0101000
+14 9 -14 9 *
Ed
 1e-07 1 1 0
1  3 0 0 6.28318530717959
2  4 1 12 0 6.28318530717959
6  5 1 12
6  6 3 8
0

0101000
+13 13 -13 13 *
Wi

0101100
+12 0 -12 0 -11 6 +10 11 *
Fa
0  1e-07 1 0
2  1
0101000
+9 0 *
Wi

0101100
+11 0 *
Fa
0  1e-07 2 0
2  2
0101000
+7 4 *
Wi

0101100
+10 0 *
Fa
0  1e-07 3 0
2  3
0101000
+5 4 *
Sh

0101100
+8 0 +6 14 -4 15 *
So

0100000
-3 0 *
Co

1100000
+2 1 *

+1 0 