DBRep_DrawableShape

CASCADE Topology V1, (c) Matra-Datavision
Locations 46
1
              1               0               0               0 
              0               1               0               0 
              0               0               1               0 
1
              1               0               0               0 
              0               1               0               0 
              0               0               1               0 
2  2 -1 0
1
              1               0               0               0 
              0               1               0               0 
              0               0               1              70 
1
              1               0               0               0 
              0               1               0               0 
              0               0               1               0 
2  4 1 5 -1 0
2  5 1 4 -1 0
2  2 -1 5 1 4 -1 0
1
              1               0               0               0 
              0               1               0               0 
              0               0               1              50 
2  4 1 5 -1 9 1 0
2  9 -1 5 1 4 -1 0
2  4 -1 0
2  2 -1 9 -1 5 1 4 -1 0
2  5 -1 0
1
              1               0               0               0 
              0               1               0               0 
              0               0               1              50 
1
              1               0               0               0 
              0               1               0               0 
              0               0               1               0 
1
              1               0               0               0 
              0               1               0               0 
              0               0               1              20 
1
              1               0               0               0 
              0               1               0               0 
              0               0               1               0 
2  15 1 16 -1 17 1 18 1 5 -1 0
2  17 -1 16 1 15 -1 0
2  5 1 18 -1 17 -1 16 1 15 -1 0
2  2 -1 5 1 18 -1 17 -1 16 1 15 -1 0
2  5 -1 9 1 0
2  18 1 5 -1 0
2  2 -1 5 1 18 -1 0
2  15 1 16 -1 0
2  16 1 15 -1 0
2  2 -1 5 1 18 -1 16 1 15 -1 0
2  15 1 16 -1 17 1 0
1
              1               0               0               0 
              0               1               0               0 
              0               0               1               0 
1
              1               0               0               0 
              0               1               0               0 
              0               0               1              50 
1
              1               0               0               0 
              0               1               0               0 
              0               0               1               0 
2  30 -1 31 1 32 1 16 -1 0
1
              1               0               0               0 
              0               1               0               0 
              0               0               1               0 
2  34 1 30 -1 31 1 32 1 16 -1 0
2  16 1 32 -1 31 -1 30 1 34 -1 0
2  31 -1 30 1 34 -1 0
2  2 -1 5 1 18 -1 16 1 32 -1 31 -1 30 1 34 -1 0
2  32 1 16 -1 18 1 5 -1 0
2  2 -1 5 1 18 -1 16 1 32 -1 0
2  34 1 30 -1 0
2  30 1 34 -1 0
2  34 -1 0
2  2 -1 5 1 18 -1 16 1 32 -1 30 1 34 -1 0
2  34 1 30 -1 31 1 0
2  30 -1 32 1 16 -1 18 1 5 -1 0
Curve2ds 4
1 0 -20 1 0 
1 0 0 0 -1 
1 6.2831853071795862 0 0 -1 
1 0 0 1 0 
Curves 27
1 -12.499999999999995 12.500000000000014 70 0 0 1 
1 12.500000000000007 12.500000000000012 70 0 0 1 
1 -12.499999999999995 12.500000000000012 0 1 0 0 
1 -12.499999999999995 12.500000000000012 0 1 0 0 
1 -12.499999999999993 -12.499999999999986 70 0 0 1 
1 -12.499999999999995 -12.499999999999986 0 0 1 0 
1 -12.499999999999995 -12.499999999999986 0 0 1 0 
1 12.500000000000007 -12.499999999999986 70 0 0 1 
1 12.500000000000007 12.500000000000012 0 0 -1 0 
1 12.500000000000007 12.500000000000012 0 0 -1 0 
1 12.500000000000007 -12.499999999999986 0 -1 0 0 
2 0 0 0 0 0 1 1 0 0 0 1 0 7.9788100000000002
1 12.500000000000007 -12.499999999999986 0 -1 0 0 
1 7.9788100000000002 0 50 0 0 1 
2 0 0 0 0 0 1 1 0 0 0 1 0 7.9788100000000002
1 -12.500000000000002 12.5 0 1 0 0 
1 -12.500000000000002 -12.5 0 0 1 0 
1 12.499999999999998 12.5 0 0 -1 0 
1 12.499999999999998 -12.5 0 -1 0 0 
1 -12.500000000000002 12.5 0 0 0 1 
1 12.499999999999998 12.5 0 0 0 1 
1 -12.500000000000002 12.5 0 1 0 0 
1 -12.500000000000002 -12.5 0 0 0 1 
1 -12.500000000000002 -12.5 0 0 1 0 
1 12.499999999999998 -12.5 0 0 0 1 
1 12.499999999999998 12.5 0 0 -1 0 
1 12.499999999999998 -12.5 0 -1 0 0 
Polygon3D 0
PolygonOnTriangulations 54
2 1 2 
p 0.113333335022132 1 0 50 
2 3 4 
p 0.113333335022132 1 0 50 
2 3 4 
p 0.113333335022132 1 0 50 
2 1 2 
p 0.113333335022132 1 0 50 
2 1 3 
p 0.113333335022132 1 0 25 
2 1 2 
p 0.113333335022132 1 0 25 
2 2 4 
p 0.113333335022132 1 0 25 
2 1 2 
p 0.113333335022132 1 0 25 
2 1 2 
p 0.113333335022132 1 0 50 
2 3 4 
p 0.113333335022132 1 0 50 
2 1 3 
p 0.113333335022132 1 0 25 
2 3 1 
p 0.113333335022132 1 0 25 
2 2 4 
p 0.113333335022132 1 0 25 
2 4 1 
p 0.113333335022132 1 0 25 
2 3 4 
p 0.113333335022132 1 0 50 
2 1 2 
p 0.113333335022132 1 0 50 
2 1 3 
p 0.113333335022132 1 0 25 
2 2 4 
p 0.113333335022132 1 0 25 
2 2 4 
p 0.113333335022132 1 0 25 
2 2 3 
p 0.113333335022132 1 0 25 
2 4 3 
p 0.113333335022132 1 0 25 
2 1 3 
p 0.113333335022132 1 0 25 
28 2 31 32 33 34 35 36 37 38 39 40 41 42 43 44 45 46 47 48 49 50 51 52 53 54 55 56 4 
p 0.113333335022132 1 0 0.232710566932577 0.465421133865155 0.698131700797732 0.930842267730309 1.16355283466289 1.39626340159546 1.62897396852804 1.86168453546062 2.0943951023932 2.32710566932577 2.55981623625835 2.79252680319093 3.0252373701235 3.25794793705608 3.49065850398866 3.72336907092124 3.95607963785381 4.18879020478639 4.42150077171897 4.65421133865155 4.88692190558412 5.1196324725167 5.35234303944928 5.58505360638185 5.81776417331443 6.05047474024701 6.28318530717959 
28 5 6 7 8 9 10 11 12 13 14 15 16 17 18 19 20 21 22 23 24 25 26 27 28 29 30 31 5 
p 0.113333335022132 1 0 0.232710566932577 0.465421133865155 0.698131700797732 0.930842267730309 1.16355283466289 1.39626340159546 1.62897396852804 1.86168453546062 2.0943951023932 2.32710566932577 2.55981623625835 2.79252680319093 3.0252373701235 3.25794793705608 3.49065850398866 3.72336907092124 3.95607963785381 4.18879020478639 4.42150077171897 4.65421133865155 4.88692190558412 5.1196324725167 5.35234303944928 5.58505360638185 5.81776417331443 6.05047474024701 6.28318530717959 
2 3 4 
p 0.113333335022132 1 0 25 
2 2 4 
p 0.113333335022132 1 0 25 
2 1 2 
p 0.113333335022132 1 0 20 
2 3 4 
p 0.113333335022132 1 0 20 
28 1 5 6 7 8 9 10 11 12 13 14 15 16 17 18 19 20 21 22 23 24 25 26 27 28 29 30 3 
p 0.113333335022132 1 0 0.232710566932577 0.465421133865155 0.698131700797732 0.930842267730309 1.16355283466289 1.39626340159546 1.62897396852804 1.86168453546062 2.0943951023932 2.32710566932577 2.55981623625835 2.79252680319093 3.0252373701235 3.25794793705608 3.49065850398866 3.72336907092124 3.95607963785381 4.18879020478639 4.42150077171897 4.65421133865155 4.88692190558412 5.1196324725167 5.35234303944928 5.58505360638185 5.81776417331443 6.05047474024701 6.28318530717959 
28 5 6 7 8 9 10 11 12 13 14 15 16 17 18 19 20 21 22 23 24 25 26 27 28 29 30 31 5 
p 0.113333335022132 1 0 0.232710566932577 0.465421133865155 0.698131700797732 0.930842267730309 1.16355283466289 1.39626340159546 1.62897396852804 1.86168453546062 2.0943951023932 2.32710566932577 2.55981623625835 2.79252680319093 3.0252373701235 3.25794793705608 3.49065850398866 3.72336907092124 3.95607963785381 4.18879020478639 4.42150077171897 4.65421133865155 4.88692190558412 5.1196324725167 5.35234303944928 5.58505360638185 5.81776417331443 6.05047474024701 6.28318530717959 
2 1 2 
p 0.113333335022132 1 0 25 
2 2 4 
p 0.113333335022132 1 0 25 
2 3 1 
p 0.113333335022132 1 0 25 
2 2 4 
p 0.113333335022132 1 0 25 
2 2 4 
p 0.113333335022132 1 0 25 
2 2 4 
p 0.113333335022132 1 0 25 
2 4 3 
p 0.113333335022132 1 0 25 
2 2 4 
p 0.113333335022132 1 0 25 
2 1 2 
p 0.113333335022132 1 0 50 
2 3 4 
p 0.113333335022132 1 0 50 
2 3 4 
p 0.113333335022132 1 0 50 
2 1 2 
p 0.113333335022132 1 0 50 
2 1 3 
p 0.113333335022132 1 0 25 
2 1 2 
p 0.113333335022132 1 0 25 
2 1 2 
p 0.113333335022132 1 0 50 
2 3 4 
p 0.113333335022132 1 0 50 
2 1 3 
p 0.113333335022132 1 0 25 
2 4 1 
p 0.113333335022132 1 0 25 
2 3 4 
p 0.113333335022132 1 0 50 
2 1 2 
p 0.113333335022132 1 0 50 
2 1 3 
p 0.113333335022132 1 0 25 
2 2 3 
p 0.113333335022132 1 0 25 
2 1 3 
p 0.113333335022132 1 0 25 
2 3 4 
p 0.113333335022132 1 0 25 
Surfaces 13
1 -12.499999999999995 12.500000000000012 70 0 1 0 1 0 0 0 0 -1 
1 -12.499999999999995 -12.499999999999986 70 -1 0 0 0 1 0 0 0 -1 
1 12.500000000000007 12.500000000000012 70 1 0 0 0 -1 0 0 0 -1 
1 5.6843418860808018e-15 1.2505552149377763e-14 70 -0 -0 -1 -1 0 0 0 1 0 
2 0 0 50 -0 -0 -1 1 0 0 0 1 0 7.9788100000000002
1 5.6843418860808018e-15 1.2505552149377763e-14 70 -0 -0 -1 -1 0 0 0 1 0 
1 12.500000000000007 -12.499999999999986 70 0 -1 0 -1 0 0 -0 -0 -1 
1 -1.7053025658242404e-15 0 0 -0 -0 -1 -1 0 0 0 1 0 
1 -12.500000000000002 12.5 0 0 1 0 1 0 0 0 0 -1 
1 -12.500000000000002 -12.5 0 -1 0 0 0 1 0 0 0 -1 
1 12.499999999999998 12.5 0 1 0 0 0 -1 0 0 0 -1 
1 12.499999999999998 -12.5 0 0 -1 0 -1 0 0 -0 -0 -1 
1 -1.7053025658242404e-15 0 0 -0 -0 -1 -1 0 0 0 1 0 
Triangulations 13
4 2 1 1.1842378929335e-15
-12.5 12.5 70 -12.5 12.5 120 12.5 12.5 70 12.5 12.5 120 0 0 0 -50 25 0 25 -50 3 1 2 3 2 4 
4 2 1 1.1842378929335e-15
-12.5 -12.5 70 -12.5 -12.5 120 -12.5 12.5 70 -12.5 12.5 120 0 0 0 -50 25 0 25 -50 3 1 2 3 2 4 
4 2 1 0
12.5 12.5 70 12.5 12.5 120 12.5 -12.5 70 12.5 -12.5 120 0 0 0 -50 25 0 25 -50 3 1 2 3 2 4 
31 31 1 1.33226762955019e-15
-12.5 12.5 70 12.5 12.5 70 -12.5 -12.5 70 12.5 -12.5 70 7.97881 0 70 7.763740143831 1.84004021563849 70 7.13012504693885 3.58088338697525 70 6.11212306320213 5.12868020804306 70 4.76461494306411 6.39998855158587 70 3.16024519807089 7.3262718557374 70 1.38550581645068 7.85759394781134 70 -0.463926542359193 7.96531111629638 70 -2.28834850118757 7.64361630075795 70 -3.989405 6.90985215196932 70 -5.47539164264343 5.80357608511946 70 -6.66619850457965 4.38442772932113 70 -7.49762887965281 2.72891373976828 70 -7.92486014113499 0.926283304151529 70 -7.92486014113499 -0.926283304151527 70 -7.49762887965281 -2.72891373976828 70 -6.66619850457965 -4.38442772932113 70 -5.47539164264343 -5.80357608511946 70 -3.989405 -6.90985215196932 70 -2.28834850118758 -7.64361630075795 70 -0.463926542359197 -7.96531111629638 70 1.38550581645068 -7.85759394781134 70 3.16024519807088 -7.3262718557374 70 4.7646149430641 -6.39998855158587 70 6.11212306320213 -5.12868020804306 70 7.13012504693884 -3.58088338697525 70 7.763740143831 -1.84004021563849 70 12.5 12.5 -12.5 12.5 12.5 -12.5 -12.5 -12.5 -7.97880999999999 -1.24344978758018e-14 -7.763740143831 1.84004021563848 -7.13012504693884 3.58088338697524 -6.11212306320213 5.12868020804305 -4.7646149430641 6.39998855158586 -3.16024519807088 7.32627185573739 -1.38550581645068 7.85759394781132 0.463926542359198 7.96531111629636 2.28834850118758 7.64361630075794 3.989405 6.90985215196931 5.47539164264344 5.80357608511945 6.66619850457966 4.38442772932112 7.49762887965282 2.72891373976827 7.924860141135 0.926283304151516 7.924860141135 -0.926283304151539 7.49762887965282 -2.72891373976829 6.66619850457966 -4.38442772932114 5.47539164264344 -5.80357608511947 3.98940500000001 -6.90985215196933 2.28834850118758 -7.64361630075796 0.463926542359202 -7.96531111629639 -1.38550581645067 -7.85759394781135 -3.16024519807088 -7.32627185573741 -4.7646149430641 -6.39998855158588 -6.11212306320213 -5.12868020804307 -7.13012504693884 -3.58088338697526 -7.763740143831 -1.8400402156385 28 29 4 30 4 29 27 28 4 31 4 30 26 27 4 5 4 31 25 26 4 2 5 6 2 6 7 2 7 8 2 4 5 3 22 23 3 23 24 3 24 25 3 25 4 9 2 8 21 22 3 10 2 9 20 21 3 11 2 10 19 20 3 18 19 3 1 12 13 1 13 14 1 14 15 1 15 16 1 16 17 1 17 18 1 18 3 1 2 12 12 2 11 
4 2 1 0
-12.5 12.5 70 12.5 12.5 70 12.5 -12.5 70 -12.5 -12.5 70 12.5 12.5 -12.5 12.5 -12.5 -12.5 12.5 -12.5 1 2 3 1 3 4 
4 2 1 0
12.5 -12.5 70 12.5 -12.5 120 -12.5 -12.5 70 -12.5 -12.5 120 0 0 0 -50 25 0 25 -50 3 1 2 3 2 4 
56 54 1 0.0539498588650087
7.97881 0 50 7.97881 0 70 7.97881 0 50 7.97881 0 70 7.763740143831 1.84004021563849 50 7.13012504693885 3.58088338697525 50 6.11212306320213 5.12868020804306 50 4.76461494306411 6.39998855158587 50 3.16024519807089 7.3262718557374 50 1.38550581645068 7.85759394781134 50 -0.463926542359193 7.96531111629638 50 -2.28834850118757 7.64361630075795 50 -3.989405 6.90985215196932 50 -5.47539164264343 5.80357608511946 50 -6.66619850457965 4.38442772932113 50 -7.49762887965281 2.72891373976828 50 -7.92486014113499 0.926283304151529 50 -7.92486014113499 -0.926283304151527 50 -7.49762887965281 -2.72891373976828 50 -6.66619850457965 -4.38442772932113 50 -5.47539164264343 -5.80357608511946 50 -3.989405 -6.90985215196932 50 -2.28834850118758 -7.64361630075795 50 -0.463926542359197 -7.96531111629638 50 1.38550581645068 -7.85759394781134 50 3.16024519807088 -7.3262718557374 50 4.7646149430641 -6.39998855158587 50 6.11212306320213 -5.12868020804306 50 7.13012504693884 -3.58088338697525 50 7.763740143831 -1.84004021563849 50 7.763740143831 1.84004021563849 70 7.13012504693885 3.58088338697525 70 6.11212306320213 5.12868020804306 70 4.76461494306411 6.39998855158587 70 3.16024519807089 7.3262718557374 70 1.38550581645068 7.85759394781134 70 -0.463926542359193 7.96531111629638 70 -2.28834850118757 7.64361630075795 70 -3.989405 6.90985215196932 70 -5.47539164264343 5.80357608511946 70 -6.66619850457965 4.38442772932113 70 -7.49762887965281 2.72891373976828 70 -7.92486014113499 0.926283304151529 70 -7.92486014113499 -0.926283304151527 70 -7.49762887965281 -2.72891373976828 70 -6.66619850457965 -4.38442772932113 70 -5.47539164264343 -5.80357608511946 70 -3.989405 -6.90985215196932 70 -2.28834850118758 -7.64361630075795 70 -0.463926542359197 -7.96531111629638 70 1.38550581645068 -7.85759394781134 70 3.16024519807088 -7.3262718557374 70 4.7646149430641 -6.39998855158587 70 6.11212306320213 -5.12868020804306 70 7.13012504693884 -3.58088338697525 70 7.763740143831 -1.84004021563849 70 0 0 0 -20 6.28318530717959 0 6.28318530717959 -20 0.232710566932577 0 0.465421133865155 0 0.698131700797732 0 0.930842267730309 0 1.16355283466289 0 1.39626340159546 0 1.62897396852804 0 1.86168453546062 0 2.0943951023932 0 2.32710566932577 0 2.55981623625835 0 2.79252680319093 0 3.0252373701235 0 3.25794793705608 0 3.49065850398866 0 3.72336907092124 0 3.95607963785381 0 4.18879020478639 0 4.42150077171897 0 4.65421133865155 0 4.88692190558412 0 5.1196324725167 0 5.35234303944928 0 5.58505360638185 0 5.81776417331443 0 6.05047474024701 0 0.232710566932577 -20 0.465421133865155 -20 0.698131700797732 -20 0.930842267730309 -20 1.16355283466289 -20 1.39626340159546 -20 1.62897396852804 -20 1.86168453546062 -20 2.0943951023932 -20 2.32710566932577 -20 2.55981623625835 -20 2.79252680319093 -20 3.0252373701235 -20 3.25794793705608 -20 3.49065850398866 -20 3.72336907092124 -20 3.95607963785381 -20 4.18879020478639 -20 4.42150077171897 -20 4.65421133865155 -20 4.88692190558412 -20 5.1196324725167 -20 5.35234303944928 -20 5.58505360638185 -20 5.81776417331443 -20 6.05047474024701 -20 23 48 49 24 23 49 24 49 50 25 24 50 25 50 51 5 1 2 5 2 31 5 31 32 26 25 51 26 51 52 6 5 32 27 26 52 27 52 53 7 32 33 7 6 32 28 27 53 28 53 54 8 33 34 8 7 33 29 54 55 29 28 54 9 34 35 9 8 34 30 55 56 30 29 55 10 35 36 10 9 35 3 56 4 3 30 56 11 36 37 11 10 36 12 37 38 12 11 37 13 38 39 13 12 38 14 39 40 14 13 39 15 14 40 15 40 41 16 15 41 16 41 42 17 16 42 17 42 43 18 17 43 18 43 44 19 18 44 19 44 45 20 19 45 20 45 46 21 20 46 21 46 47 22 21 47 22 47 48 23 22 48 
31 31 1 1.33226762955019e-15
-12.5 12.5 50 12.5 12.5 50 -12.5 -12.5 50 12.5 -12.5 50 7.97881 0 50 7.763740143831 1.84004021563849 50 7.13012504693885 3.58088338697525 50 6.11212306320213 5.12868020804306 50 4.76461494306411 6.39998855158587 50 3.16024519807089 7.3262718557374 50 1.38550581645068 7.85759394781134 50 -0.463926542359193 7.96531111629638 50 -2.28834850118757 7.64361630075795 50 -3.989405 6.90985215196932 50 -5.47539164264343 5.80357608511946 50 -6.66619850457965 4.38442772932113 50 -7.49762887965281 2.72891373976828 50 -7.92486014113499 0.926283304151529 50 -7.92486014113499 -0.926283304151527 50 -7.49762887965281 -2.72891373976828 50 -6.66619850457965 -4.38442772932113 50 -5.47539164264343 -5.80357608511946 50 -3.989405 -6.90985215196932 50 -2.28834850118758 -7.64361630075795 50 -0.463926542359197 -7.96531111629638 50 1.38550581645068 -7.85759394781134 50 3.16024519807088 -7.3262718557374 50 4.7646149430641 -6.39998855158587 50 6.11212306320213 -5.12868020804306 50 7.13012504693884 -3.58088338697525 50 7.763740143831 -1.84004021563849 50 12.5 12.5 -12.5 12.5 12.5 -12.5 -12.5 -12.5 -7.97881 0 -7.76374014383101 1.84004021563849 -7.13012504693885 3.58088338697525 -6.11212306320213 5.12868020804306 -4.76461494306411 6.39998855158587 -3.16024519807089 7.3262718557374 -1.38550581645068 7.85759394781133 0.463926542359191 7.96531111629638 2.28834850118757 7.64361630075795 3.989405 6.90985215196932 5.47539164264343 5.80357608511946 6.66619850457965 4.38442772932113 7.49762887965281 2.72891373976828 7.92486014113499 0.926283304151529 7.92486014113499 -0.926283304151527 7.49762887965281 -2.72891373976828 6.66619850457965 -4.38442772932113 5.47539164264343 -5.80357608511946 3.989405 -6.90985215196932 2.28834850118758 -7.64361630075795 0.463926542359195 -7.96531111629638 -1.38550581645068 -7.85759394781134 -3.16024519807088 -7.3262718557374 -4.76461494306411 -6.39998855158587 -6.11212306320213 -5.12868020804306 -7.13012504693885 -3.58088338697525 -7.76374014383101 -1.84004021563849 28 29 4 30 4 29 27 28 4 31 4 30 26 27 4 5 4 31 25 26 4 2 5 6 2 6 7 2 7 8 2 4 5 3 22 23 3 23 24 3 24 25 3 25 4 9 2 8 21 22 3 10 2 9 20 21 3 11 2 10 19 20 3 1 12 13 1 13 14 1 14 15 1 15 16 1 16 17 1 17 18 1 18 19 1 19 3 1 2 12 12 2 11 
4 2 1 0
-12.5 12.5 0 -12.5 12.5 50 12.5 12.5 0 12.5 12.5 50 0 0 0 -50 25 0 25 -50 3 1 2 3 2 4 
4 2 1 0
-12.5 -12.5 0 -12.5 -12.5 50 -12.5 12.5 0 -12.5 12.5 50 0 0 0 -50 25 0 25 -50 3 1 2 3 2 4 
4 2 1 0
12.5 12.5 0 12.5 12.5 50 12.5 -12.5 0 12.5 -12.5 50 0 0 0 -50 25 0 25 -50 3 1 2 3 2 4 
4 2 1 0
12.5 -12.5 0 12.5 -12.5 50 -12.5 -12.5 0 -12.5 -12.5 50 0 0 0 -50 25 0 25 -50 3 1 2 3 2 4 
4 2 1 0
-12.5 12.5 0 12.5 12.5 0 12.5 -12.5 0 -12.5 -12.5 0 12.5 12.5 -12.5 12.5 -12.5 -12.5 12.5 -12.5 1 2 3 1 3 4 

TShapes 76
Ve
1.00000000888178e-07
-12.5 12.5 70
0 0

0101101
*
Ve
1.00000000888178e-07
-12.5 12.5 120
0 0

0101101
*
Ed
 1.00000000888178e-07 1 1 0
1  1 0 0 50
6  1 1 0
6  2 2 0
0

0101000
+76 3 -75 3 *
Ve
1.00000000888178e-07
12.5 12.5 70
0 0

0101101
*
Ve
1.00000000888178e-07
12.5 12.5 120
0 0

0101101
*
Ed
 1.00000000888178e-07 1 1 0
1  2 0 0 50
6  3 1 0
6  4 3 0
0

0101000
+73 3 -72 3 *
Ed
 1e-07 1 1 0
1  3 0 0 25
6  5 1 7
6  6 4 7
0

0101000
+76 8 -73 8 *
Ed
 1e-07 1 1 0
1  4 0 0 25
6  7 1 11
6  8 5 12
0

0101000
+75 13 -72 13 *
Wi

0101100
+74 0 -71 0 -70 6 +69 10 *
Fa
0  1e-07 1 0
2  1
0101000
+68 0 *
Ve
1.00000000888178e-07
-12.5 -12.5 70
0 0

0101101
*
Ve
1.00000000888178e-07
-12.5 -12.5 120
0 0

0101101
*
Ed
 1.00000000888178e-07 1 1 0
1  5 0 0 50
6  9 2 0
6  10 6 0
0

0101000
+66 3 -65 3 *
Ed
 1e-07 1 1 0
1  6 0 0 25
6  11 2 7
6  12 4 7
0

0101000
+66 8 -76 8 *
Ed
 1e-07 1 1 0
1  7 0 0 25
6  13 2 11
6  14 5 12
0

0101000
+65 13 -75 13 *
Wi

0101100
+64 0 -74 0 -63 6 +62 10 *
Fa
0  1e-07 2 0
2  2
0101000
+61 0 *
Ve
1.00000000888178e-07
12.5 -12.5 70
0 0

0101101
*
Ve
1.00000000888178e-07
12.5 -12.5 120
0 0

0101101
*
Ed
 1.00000000888178e-07 1 1 0
1  8 0 0 50
6  15 3 0
6  16 6 0
0

0101000
+59 3 -58 3 *
Ed
 1e-07 1 1 0
1  9 0 0 25
6  17 3 7
6  18 4 7
0

0101000
+73 8 -59 8 *
Ed
 1e-07 1 1 0
1  10 0 0 25
6  19 3 11
6  20 5 12
0

0101000
+72 13 -58 13 *
Wi

0101100
+71 0 -57 0 -56 6 +55 10 *
Fa
0  1e-07 3 0
2  3
0101000
+54 0 *
Ed
 1e-07 1 1 0
1  11 0 0 25
6  21 4 7
6  22 6 7
0

0101000
+59 8 -66 8 *
Wi

0101100
+70 6 +63 6 +56 6 +52 6 *
Ve
1.50001e-07
7.97881 0 70
0 0

0101101
*
Ed
 1e-07 1 1 0
1  12 0 0 6.28318530717959
2  1 5 20 0 6.28318530717959
6  23 7 20
6  24 4 21
0

0101000
+50 22 -50 22 *
Wi

0101100
+49 19 *
Fa
0  1e-07 4 14
2  4
0101000
+51 0 +48 0 *
Ed
 1e-07 1 1 0
1  13 0 0 25
6  25 5 12
6  26 6 11
0

0101000
+58 13 -65 13 *
Wi

0101100
+69 0 +55 0 +46 0 +62 0 *
Fa
0  1e-07 6 0
2  5
0101000
+45 4 *
Wi

0101100
+57 0 -64 0 -52 6 +46 10 *
Fa
0  1e-07 7 0
2  6
0101000
+43 0 *
Ve
1.50001e-07
7.97881 0 50
0 0

0101101
*
Ed
 1e-07 1 1 0
1  14 0 0 20
3  2 3CN 5 0 0 20
7  27 28 7 0
0

0101000
+41 25 -50 25 *
Ed
 1e-07 1 1 0
1  15 0 0 6.28318530717959
2  4 5 27 0 6.28318530717959
6  29 7 27
6  30 8 27
0

0101000
+41 28 -41 28 *
Wi

0101100
+40 0 -40 0 -39 26 +49 29 *
Fa
0  1e-07 5 0
2  7
0101000
+38 0 *
Ve
1e-07
-12.5 12.5 50
0 0

0101101
*
Ve
1e-07
12.5 12.5 50
0 0

0101101
*
Ed
 1e-07 1 1 0
1  16 0 0 25
6  31 8 36
6  32 9 37
0

0101000
+36 38 -35 38 *
Ve
1e-07
-12.5 -12.5 50
0 0

0101101
*
Ed
 1e-07 1 1 0
1  17 0 0 25
6  33 8 36
6  34 10 37
0

0101000
+33 38 -36 38 *
Ve
1e-07
12.5 -12.5 50
0 0

0101101
*
Ed
 1e-07 1 1 0
1  18 0 0 25
6  35 8 36
6  36 11 37
0

0101000
+35 38 -31 38 *
Ed
 1e-07 1 1 0
1  19 0 0 25
6  37 8 36
6  38 12 37
0

0101000
+31 38 -33 38 *
Wi

0101100
+34 35 +32 35 +30 35 +29 35 *
Wi

0101100
+39 26 *
Fa
0  1e-07 8 33
2  8
0101000
+28 0 +27 0 *
Ve
1e-07
-12.5 12.5 0
0 0

0101101
*
Ed
 1e-07 1 1 0
1  20 0 0 50
6  39 9 0
6  40 10 0
0

0101000
+25 40 -36 40 *
Ve
1e-07
12.5 12.5 0
0 0

0101101
*
Ed
 1e-07 1 1 0
1  21 0 0 50
6  41 9 0
6  42 11 0
0

0101000
+23 40 -35 40 *
Ed
 1e-07 1 1 0
1  22 0 0 25
6  43 9 42
6  44 13 43
0

0101000
+25 44 -23 44 *
Wi

0101100
+24 0 -22 0 -21 41 +34 45 *
Fa
0  1e-07 9 0
2  9
0101000
+20 0 *
Ve
1e-07
-12.5 -12.5 0
0 0

0101101
*
Ed
 1e-07 1 1 0
1  23 0 0 50
6  45 10 0
6  46 12 0
0

0101000
+18 40 -33 40 *
Ed
 1e-07 1 1 0
1  24 0 0 25
6  47 10 42
6  48 13 43
0

0101000
+18 44 -25 44 *
Wi

0101100
+17 0 -24 0 -16 41 +32 45 *
Fa
0  1e-07 10 0
2  10
0101000
+15 0 *
Ve
1e-07
12.5 -12.5 0
0 0

0101101
*
Ed
 1e-07 1 1 0
1  25 0 0 50
6  49 11 0
6  50 12 0
0

0101000
+13 40 -31 40 *
Ed
 1e-07 1 1 0
1  26 0 0 25
6  51 11 42
6  52 13 43
0

0101000
+23 44 -13 44 *
Wi

0101100
+22 0 -12 0 -11 41 +30 45 *
Fa
0  1e-07 11 0
2  11
0101000
+10 0 *
Ed
 1e-07 1 1 0
1  27 0 0 25
6  53 12 42
6  54 13 43
0

0101000
+13 44 -18 44 *
Wi

0101100
+12 0 -17 0 -8 41 +29 45 *
Fa
0  1e-07 12 0
2  12
0101000
+7 0 *
Wi

0101100
+21 0 +11 0 +8 0 +16 0 *
Fa
0  1e-07 13 0
2  13
0101000
+5 34 *
Sh

0101100
+67 0 +60 0 +53 0 +47 0 -44 23 +42 0 -37 24 -26 24 +19 39 +14 39 
+9 39 +6 39 +4 46 *
So

0100000
+3 0 *
Co

1100000
+2 1 *

+1 0 